<?xml version="1.0" encoding="UTF-8"?>
<svg width="32px" height="32px" viewBox="0 0 32 32" version="1.1" xmlns="http://www.w3.org/2000/svg" xmlns:xlink="http://www.w3.org/1999/xlink">
    <!-- Generator: Sketch 50 (54983) - http://www.bohemiancoding.com/sketch -->
    <title>amazon</title>
    <desc>Created with Sketch.</desc>
    <defs></defs>
    <g id="Page-1" stroke="none" stroke-width="1" fill="none" fill-rule="evenodd">
        <g id="donna-venter-book-02" transform="translate(-545.000000, -1125.000000)" fill-rule="nonzero">
            <g id="amazon" transform="translate(545.000000, 1125.000000)">
                <path d="M16,0 C7.163,0 0,7.163 0,16 C0,24.836 7.163,32 16,32 C24.837,32 32,24.836 32,16 C32,7.163 24.837,0 16,0 Z" id="Shape" fill="#333333"></path>
                <g id="Layer_x0020_1" transform="translate(6.000000, 6.000000)" fill="#FEFEFE">
                    <path d="M0.532,15.561 C2.984,17.69 5.67,19.669 9.282,19.67 C9.352,19.67 9.423,19.669 9.496,19.667 C11.794,19.614 14.393,18.838 16.411,17.571 L16.423,17.563 C16.687,17.404 16.952,17.225 17.2,17.025 C17.356,16.91 17.462,16.732 17.462,16.545 C17.456,16.212 17.174,15.988 16.87,15.988 C16.775,15.987 16.676,16.009 16.583,16.054 C16.48,16.095 16.373,16.142 16.274,16.185 L16.126,16.247 L15.936,16.324 L15.936,16.325 C13.861,17.166 11.681,17.66 9.664,17.705 C9.59,17.707 9.516,17.707 9.442,17.707 C6.27,17.708 3.681,16.236 1.071,14.786 C0.979,14.738 0.886,14.713 0.795,14.713 C0.676,14.713 0.557,14.757 0.469,14.839 C0.381,14.921 0.329,15.041 0.33,15.163 C0.33,15.323 0.414,15.468 0.532,15.561 Z" id="Shape"></path>
                    <path d="M19.667,14.813 C19.659,14.611 19.617,14.458 19.532,14.331 L19.524,14.318 L19.514,14.305 C19.428,14.211 19.346,14.177 19.257,14.137 C18.993,14.035 18.607,13.981 18.144,13.98 C17.81,13.98 17.441,14.012 17.072,14.092 L17.071,14.068 L16.7,14.191 L16.694,14.195 L16.484,14.263 L16.484,14.272 C16.237,14.374 16.013,14.503 15.805,14.652 C15.675,14.75 15.567,14.878 15.561,15.074 C15.558,15.181 15.613,15.305 15.703,15.378 C15.793,15.451 15.897,15.475 15.989,15.475 C16.012,15.475 16.032,15.474 16.051,15.471 L16.067,15.47 L16.082,15.467 C16.263,15.428 16.529,15.403 16.839,15.359 C17.105,15.33 17.387,15.307 17.631,15.307 C17.804,15.307 17.96,15.319 18.067,15.342 C18.121,15.354 18.16,15.367 18.183,15.379 C18.191,15.382 18.197,15.384 18.199,15.387 C18.204,15.402 18.21,15.44 18.209,15.494 C18.213,15.698 18.125,16.079 18.007,16.449 C17.891,16.82 17.749,17.192 17.656,17.439 C17.633,17.496 17.621,17.559 17.621,17.627 C17.618,17.726 17.659,17.846 17.745,17.927 C17.828,18.006 17.937,18.039 18.028,18.039 L18.032,18.039 C18.169,18.037 18.285,17.982 18.386,17.904 C19.33,17.054 19.658,15.698 19.672,14.936 L19.668,14.813 L19.667,14.813 Z" id="Shape"></path>
                    <path d="M11.035,5.71 C10.48,5.752 9.839,5.794 9.199,5.879 C8.217,6.009 7.236,6.179 6.425,6.564 C4.846,7.204 3.778,8.57 3.778,10.577 C3.778,13.097 5.4,14.378 7.45,14.378 C8.133,14.378 8.688,14.291 9.199,14.165 C10.011,13.908 10.692,13.439 11.505,12.584 C11.974,13.224 12.102,13.524 12.913,14.207 C13.126,14.291 13.34,14.291 13.51,14.166 C14.024,13.738 14.919,12.969 15.387,12.542 C15.602,12.372 15.558,12.115 15.429,11.903 C14.961,11.305 14.491,10.792 14.491,9.638 L14.491,5.795 C14.491,4.172 14.619,2.677 13.425,1.568 C12.444,0.672 10.907,0.329 9.712,0.329 L9.2,0.329 C7.024,0.456 4.719,1.396 4.206,4.087 C4.12,4.429 4.378,4.556 4.548,4.598 L6.937,4.897 C7.194,4.854 7.323,4.64 7.364,4.428 C7.578,3.488 8.346,3.018 9.2,2.933 L9.372,2.933 C9.884,2.933 10.438,3.147 10.737,3.574 C11.078,4.087 11.037,4.769 11.037,5.368 L11.035,5.71 Z M10.566,10.79 C10.267,11.386 9.755,11.77 9.2,11.901 C9.114,11.901 8.987,11.942 8.858,11.942 C7.92,11.942 7.365,11.215 7.365,10.149 C7.365,8.781 8.177,8.141 9.201,7.842 C9.756,7.715 10.396,7.67 11.037,7.67 L11.037,8.183 C11.035,9.168 11.077,9.936 10.566,10.79 Z" id="Shape"></path>
                </g>
            </g>
        </g>
    </g>
</svg>