<?xml version="1.0" encoding="UTF-8"?>
<svg width="46px" height="46px" viewBox="0 0 46 46" version="1.1" xmlns="http://www.w3.org/2000/svg" xmlns:xlink="http://www.w3.org/1999/xlink">
    <!-- Generator: Sketch 50 (54983) - http://www.bohemiancoding.com/sketch -->
    <title>fb</title>
    <desc>Created with Sketch.</desc>
    <defs></defs>
    <g id="Page-1" stroke="none" stroke-width="1" fill="none" fill-rule="evenodd">
        <g id="donna-venter-home-02" transform="translate(-335.000000, -1085.000000)">
            <g id="Social" transform="translate(335.000000, 1085.000000)">
                <g id="fb">
                    <path d="M0,22.7727273 C0,10.19535 10.1961091,0 22.7727273,0 C35.3493455,0 45.5454545,10.19535 45.5454545,22.7727273 C45.5454545,35.3493455 35.3493455,45.5454545 22.7727273,45.5454545 C10.1961091,45.5454545 0,35.3493455 0,22.7727273 Z" id="Shape" fill="#FFFDFC"></path>
                    <path d="M18.2860008,38.962963 L24.8638546,38.962963 L24.8638546,22.4794617 L29.2520165,22.4794617 L29.8333333,16.7998139 L24.8638546,16.7998139 L24.8706821,13.9559504 C24.8706821,12.4754448 25.007233,11.6806577 27.0593986,11.6806577 L29.8021217,11.6806577 L29.8021217,6 L25.4129844,6 C20.1411428,6 18.2860008,8.75600263 18.2860008,13.3893995 L18.2860008,16.7998139 L15,16.7998139 L15,22.4804716 L18.2860008,22.4804716 L18.2860008,38.962963 L18.2860008,38.962963 Z" id="Path" fill="#000000"></path>
                </g>
            </g>
        </g>
    </g>
</svg>