<?xml version="1.0" encoding="UTF-8"?>
<svg width="32px" height="32px" viewBox="0 0 32 32" version="1.1" xmlns="http://www.w3.org/2000/svg" xmlns:xlink="http://www.w3.org/1999/xlink">
    <!-- Generator: Sketch 50 (54983) - http://www.bohemiancoding.com/sketch -->
    <title>ibooks</title>
    <desc>Created with Sketch.</desc>
    <defs></defs>
    <g id="Page-1" stroke="none" stroke-width="1" fill="none" fill-rule="evenodd">
        <g id="donna-venter-book-02" transform="translate(-1145.000000, -1124.000000)">
            <g id="ibooks" transform="translate(1145.000000, 1124.000000)">
                <path d="M16.22208,0.0992 C7.51808,0.0992 0.46208,7.1552 0.46208,15.8592 C0.46208,24.56448 7.51808,31.6192 16.22208,31.6192 C24.92608,31.6192 31.98208,24.56448 31.98208,15.8592 C31.98208,7.1552 24.92544,0.0992 16.22208,0.0992 Z" id="Shape" fill="#333333" fill-rule="nonzero"></path>
                <path d="M17.12576,6.49024 C17.84064,5.6512 19.0496,5.02912 20.04672,4.9888 C20.17408,6.15104 19.7056,7.31648 19.0144,8.15488 C18.32064,8.99264 17.18592,9.6448 16.07168,9.5584 C15.92192,8.42048 16.4832,7.23264 17.12576,6.49024 Z" id="Path" fill="#FFFFFF"></path>
                <path d="M22.80064,22.3616 C21.97312,23.57056 21.11552,24.77504 19.76448,24.79936 C18.43584,24.82432 18.00832,24.01216 16.49088,24.01216 C14.97216,24.01216 14.49728,24.77568 13.23968,24.82496 C11.936,24.8736 10.94272,23.52128 10.1088,22.31616 C8.4032,19.85344 7.10208,15.35616 8.85184,12.32 C9.7184,10.81088 11.27104,9.85856 12.95488,9.83232 C14.23744,9.80864 15.4464,10.69632 16.22848,10.69632 C17.01248,10.69632 18.48192,9.63008 20.02752,9.78752 C20.67392,9.81376 22.48896,10.04736 23.65504,11.75296 C23.5616,11.81184 21.48736,13.01824 21.51232,15.53024 C21.53984,18.5312 24.14464,19.52768 24.17472,19.54304 C24.1504,19.61088 23.7568,20.96448 22.80064,22.3616 Z" id="Path" fill="#FFFFFF"></path>
            </g>
        </g>
    </g>
</svg>