<?xml version="1.0" encoding="UTF-8"?>
<svg width="46px" height="46px" viewBox="0 0 46 46" version="1.1" xmlns="http://www.w3.org/2000/svg" xmlns:xlink="http://www.w3.org/1999/xlink">
    <!-- Generator: Sketch 50 (54983) - http://www.bohemiancoding.com/sketch -->
    <title>ig</title>
    <desc>Created with Sketch.</desc>
    <defs></defs>
    <g id="Page-1" stroke="none" stroke-width="1" fill="none" fill-rule="evenodd">
        <g id="donna-venter-home-02" transform="translate(-456.000000, -1085.000000)">
            <g id="Social" transform="translate(335.000000, 1085.000000)">
                <g id="ig" transform="translate(121.000000, 0.000000)">
                    <circle id="Oval" fill="#FFFDFC" cx="23.2272727" cy="22.7727273" r="22.7727273"></circle>
                    <path d="M30.52813,37.9545455 L17.191567,37.9545455 C12.846072,37.9545455 9.31060606,34.4194433 9.31060606,30.0735846 L9.31060606,16.7370215 C9.31060606,12.3911628 12.846072,8.85606061 17.191567,8.85606061 L30.52813,8.85606061 C34.8739887,8.85606061 38.4090909,12.3911628 38.4090909,16.7370215 L38.4090909,30.0739483 C38.4090909,34.4194433 34.8739887,37.9545455 30.52813,37.9545455 L30.52813,37.9545455 Z M17.2494859,11.3863636 C14.2671966,11.3863636 11.8409091,13.8126148 11.8409091,16.7948593 L11.8409091,30.0157467 C11.8409091,32.9979913 14.2671966,35.4242424 17.2494859,35.4242424 L30.4702111,35.4242424 C33.4525003,35.4242424 35.8787879,32.9979913 35.8787879,30.0157467 L35.8787879,16.7948593 C35.8787879,13.8126148 33.4525003,11.3863636 30.4702111,11.3863636 L17.2494859,11.3863636 L17.2494859,11.3863636 Z" id="Shape" fill="#000000"></path>
                    <path d="M23.8598485,30.3636364 C20.0230235,30.3636364 16.9015152,27.2417801 16.9015152,23.405303 C16.9015152,19.5681301 20.0230235,16.4469697 23.8598485,16.4469697 C27.6966735,16.4469697 30.8181818,19.5681301 30.8181818,23.405303 C30.8181818,27.2417801 27.6966735,30.3636364 23.8598485,30.3636364 L23.8598485,30.3636364 Z M23.8598485,18.9772727 C26.3018575,18.9772727 28.2878788,20.9636261 28.2878788,23.405303 C28.2878788,25.8473121 26.3015254,27.8333333 23.8598485,27.8333333 C21.4181715,27.8333333 19.4318182,25.8473121 19.4318182,23.405303 C19.4318182,20.9636261 21.4181715,18.9772727 23.8598485,18.9772727 Z M31.4507576,17.7121212 C30.4026717,17.7121212 29.5530303,16.8624798 29.5530303,15.8143939 C29.5530303,14.7663081 30.4026717,13.9166667 31.4507576,13.9166667 C32.4988434,13.9166667 33.3484848,14.7663081 33.3484848,15.8143939 C33.3484848,16.8624798 32.4988434,17.7121212 31.4507576,17.7121212 Z" id="Combined-Shape" fill="#000000"></path>
                </g>
            </g>
        </g>
    </g>
</svg>