<?xml version="1.0" encoding="UTF-8"?>
<svg width="45px" height="44px" viewBox="0 0 45 44" version="1.1" xmlns="http://www.w3.org/2000/svg" xmlns:xlink="http://www.w3.org/1999/xlink">
    <!-- Generator: Sketch 50 (54983) - http://www.bohemiancoding.com/sketch -->
    <title>Jin &amp; Co. Logo</title>
    <desc>Created with Sketch.</desc>
    <defs></defs>
    <g id="Page-1" stroke="none" stroke-width="1" fill="none" fill-rule="evenodd">
        <g id="donna-venter-home-02" transform="translate(-1452.000000, -1087.000000)">
            <g id="Jin-&amp;-Co.-Logo" transform="translate(1452.000000, 1087.000000)">
                <rect id="Rectangle-path" fill="#373737" x="0" y="0" width="44.9166667" height="44"></rect>
                <path d="M8.5870098,13.7135256 L9.42325245,13.7135256 C9.6675129,13.7135256 9.83167428,13.6624737 9.91573658,13.5599038 C9.9995903,13.4573339 10.0417257,13.3123374 10.0417257,13.124681 L10.0417257,7.2238806 L12.5502451,7.2238806 L12.5502451,13.5979013 C12.5502451,14.3916526 12.3877525,14.9506586 12.0631843,15.2749194 C11.7386162,15.5994133 11.2213097,15.761194 10.5114734,15.761194 L8.5872184,15.761194 L8.5872184,13.7135256 L8.5870098,13.7135256 Z" id="Shape" fill="#FFFFFF"></path>
                <polygon id="Shape" fill="#FFFFFF" points="15.192402 7.2238806 17.8345588 7.2238806 17.8345588 15.761194 15.192402 15.761194"></polygon>
                <polygon id="Shape" fill="#FFFFFF" points="19.8161765 7.2238806 22.0548764 7.2238806 24.4084352 10.5132545 24.4084352 7.2238806 27.0821078 7.2238806 27.0821078 15.761194 24.830594 15.761194 22.4896161 12.484641 22.4896161 15.761194 19.8161765 15.761194"></polygon>
                <path d="M10.5275345,17.7313433 L12.5908684,17.7313433 L15.8529412,26.2686567 L13.1450357,26.2686567 L12.861612,25.500802 L10.2570258,25.500802 L9.97313245,26.2686567 L7.26593137,26.2686567 L10.5275345,17.7313433 L10.5275345,17.7313433 Z M12.1727941,23.8294243 L11.5599327,22.6098081 L10.9460784,23.8294243 L12.1727941,23.8294243 L12.1727941,23.8294243 Z" id="Shape" fill="#FFFFFF"></path>
                <polygon id="Shape" fill="#FFFFFF" points="17.1740196 17.7313433 19.4127195 17.7313433 21.7662783 21.0209503 21.7662783 17.7313433 24.439951 17.7313433 24.439951 26.2686567 22.1882042 26.2686567 19.8472263 22.9918706 19.8472263 26.2686567 17.1740196 26.2686567"></polygon>
                <path d="M25.1004902,26.2686567 L25.1004902,17.7313433 L27.4178947,17.7313433 C28.2029877,17.7313433 28.9027494,17.8208564 29.5162672,18.0001157 C30.1300133,18.1793751 30.6477046,18.4483806 31.0697976,18.8066662 C31.4916624,19.1649518 31.8129094,19.6108856 32.0344511,20.1437684 C32.2559929,20.6775836 32.3664216,21.2941518 32.3664216,21.993473 C32.3664216,22.6932604 32.2559929,23.3095955 32.0344511,23.8429445 C31.8129094,24.3762935 31.4916624,24.8222273 31.0697976,25.180746 C30.6477046,25.5387985 30.1302414,25.809902 29.5162672,25.9933573 C28.9027494,26.1770456 28.2029877,26.2686567 27.4178947,26.2686567 L25.1004902,26.2686567 L25.1004902,26.2686567 Z M27.5224673,23.8294243 C28.293735,23.8294243 28.8899572,23.6785104 29.3119769,23.3769149 C29.7337156,23.0750872 29.9444444,22.6139873 29.9444444,21.9936152 C29.9444444,21.3734753 29.7337156,20.9146971 29.3119769,20.6170486 C28.8899572,20.3196322 28.293735,20.1705757 27.5224673,20.1705757 L27.5224673,23.8294243 L27.5224673,23.8294243 Z" id="Shape" fill="#FFFFFF"></path>
                <path d="M7.26593137,33.1644012 C7.26593137,32.513751 7.37811269,31.926633 7.60291353,31.4019365 C7.82705707,30.87724 8.13205002,30.4278493 8.51701599,30.0537643 C8.90198196,29.6799014 9.35114544,29.3933398 9.86428733,29.1940796 C10.3774292,28.9950414 10.9232176,28.8955224 11.5003379,28.8955224 C11.9578274,28.8955224 12.3642655,28.9399505 12.7214053,29.0294733 C13.0781068,29.1192181 13.3848526,29.2205143 13.6418617,29.3344725 C13.9385287,29.4642027 14.1953188,29.6070392 14.4120128,29.7612049 L13.1486583,32.0177107 C13.0202633,31.920413 12.8793793,31.8271139 12.7277593,31.737369 C12.5912574,31.6722818 12.4282439,31.6091938 12.2402526,31.5481051 C12.0516039,31.4870164 11.8373201,31.4565831 11.5967437,31.4565831 C11.3478414,31.4565831 11.1193158,31.5014556 10.9109478,31.5907561 C10.7023606,31.6798346 10.520066,31.802012 10.3634065,31.956622 C10.2074044,32.1110098 10.0849252,32.2918324 9.99640712,32.4993118 C9.90810815,32.7065692 9.86406822,32.9282656 9.86406822,33.163957 C9.86406822,33.3998704 9.90986099,33.6213448 10.002542,33.82838 C10.0943467,34.0360816 10.2207698,34.2171263 10.3813731,34.371292 C10.5417573,34.5256798 10.7301869,34.6478572 10.9466618,34.7371578 C11.1631366,34.8266805 11.3999882,34.8713308 11.6567783,34.8713308 C11.912911,34.8713308 12.1420939,34.8391204 12.3425742,34.7735889 C12.5426163,34.7087238 12.7111074,34.6356395 12.8476092,34.5541138 C13.0079935,34.4652575 13.1484392,34.3592964 13.2685083,34.2371189 L14.5318627,36.4938469 C14.3153879,36.672448 14.0588169,36.8315008 13.7621499,36.9696724 C13.5053599,37.0834084 13.196423,37.1891474 12.8355585,37.2866672 C12.4749131,37.3839649 12.0614636,37.4328358 11.5967437,37.4328358 C10.9712014,37.4328358 10.3936429,37.3290961 9.86406822,37.122283 C9.33493173,36.9148036 8.8774423,36.6240213 8.49247633,36.2497142 C8.10794857,35.8758513 7.80711859,35.4266827 7.5904246,34.9024305 C7.37394971,34.3781783 7.26593137,33.7986131 7.26593137,33.1644012 L7.26593137,33.1644012 Z" id="Shape" fill="#FFFFFF"></path>
                <path d="M16.1905146,31.5053183 C16.4152657,30.9850917 16.721785,30.5315039 17.1105194,30.1454434 C17.4988071,29.7593828 17.9545647,29.4543994 18.4780157,29.2307153 C19.0014668,29.0070312 19.5577591,28.8955224 20.1462227,28.8955224 C20.7355798,28.8955224 21.291202,29.0068091 21.814653,29.2307153 C22.3381041,29.4543994 22.7943085,29.7593828 23.1828195,30.1454434 C23.5711072,30.5315039 23.8776265,30.9850917 24.1028244,31.5053183 C24.3275754,32.0259891 24.439951,32.5786465 24.439951,33.1641791 C24.439951,33.7497117 24.3275754,34.3025912 24.1028244,34.8228178 C23.8776265,35.3434886 23.5711072,35.7966322 23.1828195,36.1826927 C22.7945319,36.5691975 22.3383275,36.8737366 21.814653,37.0974207 C21.2914254,37.321327 20.7355798,37.4328358 20.1462227,37.4328358 C19.5577591,37.4328358 19.0014668,37.321327 18.4780157,37.0974207 C17.9547881,36.8737366 17.4990305,36.5691975 17.1105194,36.1826927 C16.721785,35.7966322 16.4152657,35.3434886 16.1905146,34.8228178 C15.9655401,34.3025912 15.8529412,33.7497117 15.8529412,33.1641791 C15.8529412,32.5786465 15.9653167,32.0259891 16.1905146,31.5053183 Z M18.4509549,33.8760979 C18.5476623,34.0986469 18.679079,34.2926335 18.8456838,34.4578196 C19.0118099,34.6232438 19.2069003,34.754155 19.4299975,34.8498391 C19.6533341,34.9457613 19.8919907,34.9936034 20.1462067,34.9936034 C20.4004227,34.9936034 20.6390793,34.9459993 20.8628946,34.8498391 C21.0864706,34.754155 21.2813217,34.6232438 21.4476871,34.4578196 C21.6142919,34.2926335 21.7454693,34.0984089 21.8419373,33.8760979 C21.9381659,33.654025 21.9865196,33.4169567 21.9865196,33.1641791 C21.9865196,32.9114015 21.9381659,32.6738572 21.8419373,32.4520223 C21.7454693,32.2294732 21.6140525,32.0359627 21.4476871,31.8705386 C21.2810823,31.7048764 21.0864706,31.5739652 20.8628946,31.4785191 C20.6390793,31.3828349 20.4004227,31.3347548 20.1462067,31.3347548 C19.8919907,31.3347548 19.6533341,31.3828349 19.4299975,31.4785191 C19.2066609,31.5739652 19.0118099,31.7048764 18.8456838,31.8705386 C18.679079,32.0359627 18.5474229,32.2297113 18.4509549,32.4520223 C18.3547262,32.6738572 18.3063725,32.9116395 18.3063725,33.1641791 C18.3063725,33.4169567 18.3547262,33.654263 18.4509549,33.8760979 Z" id="Shape" fill="#FFFFFF"></path>
            </g>
        </g>
    </g>
</svg>